<?xml version="1.0" ?>

<!-- Uploaded to: SVG Repo, www.svgrepo.com, Generator: SVG Repo Mixer Tools -->
<svg width="800px" height="800px" viewBox="0 0 20 20" version="1.1" xmlns="http://www.w3.org/2000/svg">

<g id="layer1">

<path d="M 12 0 L 12 8 L 20 8 L 20 0 L 12 0 z M 13 1 L 19 1 L 19 7 L 13 7 L 13 1 z M 3 3 L 3 11 L 4 11 L 4 4 L 11 4 L 11 3 L 3 3 z M 16 9 L 16 16 L 9 16 L 9 17 L 17 17 L 17 9 L 16 9 z M 0 12 L 0 20 L 8 20 L 8 12 L 0 12 z M 1 13 L 7 13 L 7 19 L 1 19 L 1 13 z " style="fill:#ffffff; fill-opacity:1; stroke:none; stroke-width:0px;"/>

</g>

</svg>