<?xml version="1.0" encoding="iso-8859-1"?>
<!-- Uploaded to: SVG Repo, www.svgrepo.com, Generator: SVG Repo Mixer Tools -->
<svg fill="#ffffff" height="800px" width="800px" version="1.1" id="Layer_1" xmlns="http://www.w3.org/2000/svg" xmlns:xlink="http://www.w3.org/1999/xlink" 
	 viewBox="0 0 480 480" xml:space="preserve">
<g>
	<g>
		<path d="M420.526,259.853c33.711-5.7,59.474-35.09,59.474-70.403c0-39.345-32.034-71.354-71.408-71.354
			c-39.371,0-71.401,32.009-71.401,71.354c0,32.686,22.074,60.293,52.087,68.743c-17.138,2.687-30.071,11.488-38.521,26.288
			c-2.8,4.903-5.079,10.486-6.868,16.768c-5.902-10.095-13.456-19.495-22.535-27.914c-11.932-11.065-25.919-19.713-40.891-25.536
			c29.151-15.938,48.969-46.907,48.969-82.422c0-51.733-42.079-93.822-93.8-93.822c-51.746,0-93.844,42.088-93.844,93.822
			c0,35.517,19.829,66.488,48.996,82.425c-14.968,5.822-28.955,14.469-40.89,25.531c-9.407,8.718-17.17,18.49-23.164,28.992
			c-2.15-6.82-4.93-12.918-8.338-18.262c-7.961-12.485-19.394-20.748-33.564-24.477c32.975-6.3,57.982-35.344,57.982-70.136
			c0-39.345-32.031-71.354-71.401-71.354C32.034,118.096,0,150.105,0,189.45c0,33.043,22.557,60.906,53.075,69.022
			c-16.505,2.978-29.707,11.659-38.602,25.582C5.289,298.43,0.632,318.224,0.632,342.89v55.555c0,5.523,4.477,10,10,10h111.56
			h226.837H453.15c5.523,0,10-4.477,10-10V342.89c0-25.501-3.82-44.604-11.68-58.401
			C444.326,271.946,433.953,263.713,420.526,259.853z M20,189.45c0-28.317,23.061-51.354,51.408-51.354
			c28.343,0,51.401,23.037,51.401,51.354c0,28.352-23.059,51.419-51.401,51.419C43.061,240.869,20,217.802,20,189.45z
			 M112.192,356.526v31.918h-91.56v-45.553c0-43.524,15.412-65.593,45.809-65.593c16.095,0,27.572,5.73,35.088,17.517
			c7.075,11.096,10.663,27.271,10.663,48.075V356.526z M161.788,165.378c0-40.707,33.126-73.823,73.843-73.823
			c38.241,0,69.776,29.246,73.439,66.552l-92.353-32.401c-3.599-1.263-7.604-0.368-10.323,2.307l-44.324,43.6
			C161.897,169.555,161.788,167.48,161.788,165.378z M132.192,388.445v-31.918h-0.001c0-44.679,35.918-84.625,81.124-94.798
			c1.59,1.066,3.502,1.689,5.561,1.689h8.172v116.441c0,3.654,1.966,6.841,4.893,8.586H132.192z M167.641,194.186l48.336-47.546
			l92.179,32.34c-6.4,34.245-36.475,60.251-72.524,60.251C205.128,239.231,178.887,220.637,167.641,194.186z M339.028,388.445
			h-96.873c2.926-1.745,4.893-4.932,4.893-8.586V263.418h9.014c1.611,0,3.128-0.39,4.477-1.067
			c43.957,11.097,78.489,50.361,78.489,94.176V388.445z M357.19,189.45c0-28.317,23.059-51.354,51.401-51.354
			c28.347,0,51.408,23.037,51.408,51.354c0,28.352-23.062,51.419-51.408,51.419C380.249,240.869,357.19,217.802,357.19,189.45z
			 M443.15,388.445h-84.122v-31.918v-13.636c0-57.8,21.277-65.593,42.09-65.593c20.784,0,42.032,7.793,42.032,65.593V388.445z"/>
	</g>
</g>
</svg>
